<svg xmlns="http://www.w3.org/2000/svg" width="151.74" height="54.94" viewBox="0 0 151.74 54.94">
  <g id="footer_logo" transform="translate(-479.331 -161.061)">
    <g id="그룹_1" data-name="그룹 1" transform="translate(479.331 180.593)">
      <path id="패스_1" data-name="패스 1" d="M483.793,171.674v.226c-.4.059-.712.911-.257,2.076l6.509,14.638,6.451-14.524c.542-1.222.426-2.131,0-2.189v-.226h2.36v.226c-.4.059-1.165,1.11-1.65,2.218l-7.758,17.451h-.71l-7.7-17.337c-.483-1.108-1.28-2.273-1.7-2.331v-.226Z" transform="translate(-479.331 -171.674)" fill="#4b4b4b"/>
      <path id="패스_2" data-name="패스 2" d="M504.292,171.674V174.2h-.227a2.642,2.642,0,0,0-2.443-1.875h-6.2c-.852,0-.852.568-.852,1.875v7.078H499.8a2.845,2.845,0,0,0,2.443-1.195h.227V183.1h-.227a2.86,2.86,0,0,0-2.443-1.165h-5.229v7.1c0,1.309,0,1.877.852,1.877h6.509a2.646,2.646,0,0,0,2.445-1.877h.225v2.53H491.445v-.227a2.81,2.81,0,0,0,.852-2.3V174.2a2.816,2.816,0,0,0-.852-2.3v-.226Z" transform="translate(-469.935 -171.674)" fill="#4b4b4b"/>
      <path id="패스_3" data-name="패스 3" d="M506.934,171.674c4.746,0,7.1,2.642,7.1,5.314,0,2.3-1.761,4.6-5.284,5.172,5.655,1.96,3.523,8.9,7.7,8.924l.027.483c-8.241,0-4.86-9.237-11.026-9.265h-1.875v6.735a2.816,2.816,0,0,0,.851,2.3v.227h-3.977v-.227a2.809,2.809,0,0,0,.852-2.3V174.2a2.816,2.816,0,0,0-.852-2.3v-.226Zm-2.5.653c-.851,0-.851.568-.851,1.875v7.447H506.2c3.61,0,5.4-2.331,5.4-4.661s-1.79-4.661-5.4-4.661Z" transform="translate(-462.947 -171.674)" fill="#4b4b4b"/>
      <path id="패스_4" data-name="패스 4" d="M514.58,171.674c3.892.028,8.725.653,8.725,5.116,0,2.784-2.019,4.063-4.377,4.661,3.212.369,6.309,1.534,6.309,4.945,0,4.661-6.252,5.172-9.691,5.172H510.6v-.227a2.81,2.81,0,0,0,.852-2.3V174.2a2.816,2.816,0,0,0-.852-2.3v-.226Zm-.284,9.606c2.784,0,6.65-.483,6.65-4.49,0-3.894-3.182-4.49-6.366-4.49-.854,0-.854.6-.854,1.9v7.078Zm-.57.653v7.1c0,1.309,0,1.877.854,1.877h1.108c2.784,0,7.133-.511,7.133-4.519s-3.835-4.519-7.1-4.49h-.142c-.483.028-.968.028-1.42.028Z" transform="translate(-455.078 -171.674)" fill="#4b4b4b"/>
      <path id="패스_5" data-name="패스 5" d="M524.581,171.674v.226a2.816,2.816,0,0,0-.852,2.3v14.835a2.81,2.81,0,0,0,.852,2.3v.227H520.6v-.227a2.817,2.817,0,0,0,.85-2.3V174.2a2.823,2.823,0,0,0-.85-2.3v-.226Z" transform="translate(-447.319 -171.674)" fill="#4b4b4b"/>
      <path id="패스_6" data-name="패스 6" d="M526.444,171.674l12.932,16.114V174.2a2.816,2.816,0,0,0-.852-2.3v-.226h2.358v.226a2.816,2.816,0,0,0-.852,2.3v14.835a2.81,2.81,0,0,0,.852,2.3v.227h-1.506L525.79,174.657v14.381a2.809,2.809,0,0,0,.852,2.3v.227h-2.36v-.227a2.8,2.8,0,0,0,.854-2.3V174.2a2.809,2.809,0,0,0-.854-2.3v-.226Z" transform="translate(-444.466 -171.674)" fill="#4b4b4b"/>
      <path id="패스_7" data-name="패스 7" d="M541.182,171.674a9.951,9.951,0,1,1,0,19.894H535.07v-.227a2.81,2.81,0,0,0,.852-2.3V174.2a2.816,2.816,0,0,0-.852-2.3v-.226Zm-2.133.653c-.852,0-.852.568-.852,1.875v14.835c0,1.309,0,1.877.852,1.877h1.991c4.6,0,7.928-4.292,7.928-9.294s-3.326-9.294-7.928-9.294Z" transform="translate(-436.099 -171.674)" fill="#4b4b4b"/>
      <path id="패스_8" data-name="패스 8" d="M558.958,171.674V174.2h-.227a2.642,2.642,0,0,0-2.443-1.875h-6.2c-.852,0-.852.568-.852,1.875v7.078h5.229a2.845,2.845,0,0,0,2.443-1.195h.227V183.1h-.227a2.86,2.86,0,0,0-2.443-1.165h-5.229v7.1c0,1.309,0,1.877.852,1.877H556.6a2.646,2.646,0,0,0,2.445-1.877h.226v2.53H546.112v-.227a2.809,2.809,0,0,0,.852-2.3V174.2a2.816,2.816,0,0,0-.852-2.3v-.226Z" transform="translate(-427.535 -171.674)" fill="#4b4b4b"/>
      <path id="패스_9" data-name="패스 9" d="M557.123,171.674l12.93,16.114V174.2a2.816,2.816,0,0,0-.852-2.3v-.226h2.36v.226a2.809,2.809,0,0,0-.854,2.3v14.835a2.8,2.8,0,0,0,.854,2.3v.227h-1.507l-13.583-16.911v14.381a2.811,2.811,0,0,0,.85,2.3v.227h-2.358v-.227a2.815,2.815,0,0,0,.852-2.3V174.2a2.822,2.822,0,0,0-.852-2.3v-.226Z" transform="translate(-420.671 -171.674)" fill="#4b4b4b"/>
    </g>
    <g id="그룹_2" data-name="그룹 2" transform="translate(481.945 209.514)">
      <path id="패스_10" data-name="패스 10" d="M480.8,194.575c.1-.018.3-.257.444-.542l2.5-5.609h.222l2.408,5.423c.151.337.4.71.533.728v.071h-1.367v-.071c.133-.018.231-.311.053-.712v.009l-.33-.755a1.578,1.578,0,0,1-.737.2c-.639,0-1.136-.444-1.884-.444a2.13,2.13,0,0,0-.7.124l-.4.9c-.169.382-.133.666,0,.684v.071H480.8Zm1.225-1.8a1.965,1.965,0,0,1,.641-.107c.737,0,1.207.435,1.82.435a1.408,1.408,0,0,0,.685-.178l-1.611-3.617Z" transform="translate(-480.803 -188.291)" fill="#4b4b4b"/>
      <path id="패스_11" data-name="패스 11" d="M492.515,188.424c1.484,0,2.221.827,2.221,1.664a1.736,1.736,0,0,1-1.653,1.616c1.769.613,1.1,2.782,2.41,2.791l.009.151c-2.578,0-1.522-2.889-3.45-2.9h-.586v2.108a.884.884,0,0,0,.266.719v.071h-1.245v-.071a.877.877,0,0,0,.268-.719v-4.64a.877.877,0,0,0-.268-.719v-.073Zm-.783.206c-.266,0-.266.178-.266.586v2.328h.817a1.473,1.473,0,1,0,0-2.914Z" transform="translate(-473.292 -188.291)" fill="#4b4b4b"/>
      <path id="패스_12" data-name="패스 12" d="M499.207,188.424h4.941v.792h-.073a.824.824,0,0,0-.762-.586H502.3c-.266,0-.266.178-.266.586v4.64a.9.9,0,0,0,.266.719v.071h-1.245v-.071a.89.89,0,0,0,.266-.677v-4.842c-.007-.295-.036-.426-.266-.426h-1.012a.825.825,0,0,0-.765.586h-.071Z" transform="translate(-466.529 -188.291)" fill="#4b4b4b"/>
      <path id="패스_13" data-name="패스 13" d="M511.256,188.349a3.132,3.132,0,0,1,1.855.632l-.469.648h-.08a1.337,1.337,0,0,0-1.307-1.074c-1.628,0-2.443,1.518-2.443,3.038s.815,3.04,2.443,3.04a2.251,2.251,0,0,0,1.438-.444v-2.081c0-.391-.08-.675-.24-.719a1.693,1.693,0,0,0-1.11.249l-.082-.142a1.644,1.644,0,0,1,.953-.293c.346,0,.657.089.941.089a.823.823,0,0,0,.488-.142l.045.142c-.009.018-.027.018-.036.027a1,1,0,0,0-.275.739V194.7h-.126a.312.312,0,0,0-.3-.328.518.518,0,0,0-.231.062,2.892,2.892,0,0,1-1.467.4,3.244,3.244,0,0,1,0-6.488Z" transform="translate(-459.673 -188.349)" fill="#4b4b4b"/>
      <path id="패스_14" data-name="패스 14" d="M517.4,194.575c.108-.018.3-.257.446-.542l2.5-5.609h.222l2.408,5.423c.151.337.4.71.533.728v.071h-1.369v-.071c.135-.018.231-.311.055-.712v.009l-.33-.755a1.578,1.578,0,0,1-.737.2c-.639,0-1.136-.444-1.884-.444a2.139,2.139,0,0,0-.7.124l-.4.9c-.169.382-.133.666,0,.684v.071H517.4Zm1.229-1.8a1.962,1.962,0,0,1,.639-.107c.737,0,1.209.435,1.822.435a1.4,1.4,0,0,0,.684-.178l-1.609-3.617Z" transform="translate(-452.421 -188.291)" fill="#4b4b4b"/>
      <path id="패스_15" data-name="패스 15" d="M528.327,188.424v.073a.877.877,0,0,0-.266.719v4.64c0,.408,0,.586.266.586h2.035a.822.822,0,0,0,.763-.586h.071v.79h-4.114v-.071a.877.877,0,0,0,.266-.719v-4.64a.877.877,0,0,0-.266-.719v-.073Z" transform="translate(-444.909 -188.291)" fill="#4b4b4b"/>
      <path id="패스_16" data-name="패스 16" d="M536.992,188.424v.073a.877.877,0,0,0-.266.719v4.64c0,.408,0,.586.266.586h2.035a.823.823,0,0,0,.764-.586h.071v.79h-4.114v-.071a.878.878,0,0,0,.266-.719v-4.64a.878.878,0,0,0-.266-.719v-.073Z" transform="translate(-438.188 -188.291)" fill="#4b4b4b"/>
      <path id="패스_17" data-name="패스 17" d="M548.43,188.424v.792h-.071a.826.826,0,0,0-.765-.586h-1.937c-.266,0-.266.178-.266.586v2.212h1.635a.889.889,0,0,0,.764-.373h.071V192h-.071a.893.893,0,0,0-.764-.366H545.39v2.223c0,.408,0,.586.266.586h2.035a.823.823,0,0,0,.764-.586h.071v.79h-4.114v-.071a.878.878,0,0,0,.266-.719v-4.64a.878.878,0,0,0-.266-.719v-.073Z" transform="translate(-431.467 -188.291)" fill="#4b4b4b"/>
      <path id="패스_18" data-name="패스 18" d="M555.155,188.424c1.483,0,2.221.827,2.221,1.664a1.736,1.736,0,0,1-1.653,1.616c1.768.613,1.1,2.782,2.408,2.791l.009.151c-2.578,0-1.52-2.889-3.448-2.9h-.586v2.108a.877.877,0,0,0,.266.719v.071h-1.245v-.071a.878.878,0,0,0,.266-.719v-4.64a.878.878,0,0,0-.266-.719v-.073Zm-.783.206c-.266,0-.266.178-.266.586v2.328h.819a1.473,1.473,0,1,0,0-2.914Z" transform="translate(-424.708 -188.291)" fill="#4b4b4b"/>
      <path id="패스_19" data-name="패스 19" d="M563.11,188.424v.073c-.114.018-.123.249.037.568l1.607,2.532,1.529-2.408c.275-.435.268-.693.1-.693v-.073h.8v.073c-.131.018-.426.329-.657.693l-1.724,2.718v1.948a.876.876,0,0,0,.268.719v.071H563.82v-.071a.876.876,0,0,0,.268-.719v-1.948l-1.715-2.71a1.723,1.723,0,0,0-.666-.7v-.073Z" transform="translate(-418.053 -188.291)" fill="#4b4b4b"/>
    </g>
    <g id="그룹_3" data-name="그룹 3" transform="translate(538.393 161.061)">
      <path id="패스_20" data-name="패스 20" d="M512.594,161.061h10.153v1.626H522.6a1.692,1.692,0,0,0-1.57-1.206h-2.081c-.549,0-.549.366-.549,1.206v9.531a1.87,1.87,0,0,0,.549,1.479v.146h-2.557V173.7a1.84,1.84,0,0,0,.547-1.387v-9.952c-.018-.6-.073-.877-.547-.877h-2.081a1.7,1.7,0,0,0-1.571,1.206h-.146Z" transform="translate(-512.594 -161.061)" fill="#4b4b4b"/>
      <path id="패스_21" data-name="패스 21" d="M519.237,161.208v-.147H521.8v.147a1.8,1.8,0,0,0-.549,1.479v4.546H528.3v-4.546a1.8,1.8,0,0,0-.549-1.479v-.147H530.3v.147a1.8,1.8,0,0,0-.549,1.479v9.531a1.8,1.8,0,0,0,.549,1.479v.146h-2.557V173.7a1.8,1.8,0,0,0,.549-1.479v-4.565h-7.049v4.565a1.8,1.8,0,0,0,.549,1.479v.146h-2.559V173.7a1.8,1.8,0,0,0,.549-1.479v-9.531A1.8,1.8,0,0,0,519.237,161.208Z" transform="translate(-507.442 -161.061)" fill="#4b4b4b"/>
      <path id="패스_22" data-name="패스 22" d="M534.751,161.061v1.626h-.146a1.691,1.691,0,0,0-1.568-1.206h-3.983c-.547,0-.547.366-.547,1.206v4.546h3.359a1.829,1.829,0,0,0,1.57-.765h.146V168.4h-.146a1.838,1.838,0,0,0-1.57-.748h-3.359v4.565c0,.84,0,1.206.547,1.206h4.182a1.7,1.7,0,0,0,1.571-1.206h.146v1.625H526.5V173.7a1.8,1.8,0,0,0,.549-1.479v-9.531a1.8,1.8,0,0,0-.549-1.479v-.147Z" transform="translate(-501.81 -161.061)" fill="#4b4b4b"/>
    </g>
  </g>
</svg>
