<svg id="instagram" xmlns="http://www.w3.org/2000/svg" width="19.777" height="19.778" viewBox="0 0 19.777 19.778">
  <path id="패스_34" data-name="패스 34" d="M60.3,765.484H52.4a5.947,5.947,0,0,0-5.94,5.941v7.9a5.947,5.947,0,0,0,5.94,5.94h7.9a5.947,5.947,0,0,0,5.941-5.94v-7.9A5.947,5.947,0,0,0,60.3,765.484Zm4.08,13.838A4.085,4.085,0,0,1,60.3,783.4H52.4a4.084,4.084,0,0,1-4.079-4.079v-7.9a4.084,4.084,0,0,1,4.079-4.08h7.9a4.085,4.085,0,0,1,4.08,4.08Z" transform="translate(-46.462 -765.484)" fill="#fff"/>
  <path id="패스_35" data-name="패스 35" d="M56.7,770.77a4.871,4.871,0,1,0,4.871,4.871A4.877,4.877,0,0,0,56.7,770.77Zm0,7.991a3.12,3.12,0,1,1,3.12-3.12A3.123,3.123,0,0,1,56.7,778.761Z" transform="translate(-46.734 -765.751)" fill="#fff"/>
  <path id="패스_36" data-name="패스 36" d="M62.331,769.2a1.16,1.16,0,1,0,1.16,1.159A1.159,1.159,0,0,0,62.331,769.2Z" transform="translate(-47.207 -765.672)" fill="#fff"/>
</svg>
