<svg xmlns="http://www.w3.org/2000/svg" xmlns:xlink="http://www.w3.org/1999/xlink" width="126.45" height="45.784" viewBox="0 0 126.45 45.784">
  <defs>
    <linearGradient id="linear-gradient" x1="0.5" x2="0.5" y2="1" gradientUnits="objectBoundingBox">
      <stop offset="0.006" stop-color="#ffc300"/>
      <stop offset="0.253" stop-color="#fffac5"/>
      <stop offset="0.296" stop-color="#f9f0b3"/>
      <stop offset="0.381" stop-color="#ecd686"/>
      <stop offset="0.499" stop-color="#d6ac3f"/>
      <stop offset="0.596" stop-color="#c48800"/>
      <stop offset="0.812" stop-color="#ebc75b"/>
      <stop offset="0.871" stop-color="#f7d975"/>
      <stop offset="1" stop-color="#fffac5"/>
    </linearGradient>
    <linearGradient id="linear-gradient-2" x1="0.5" y1="0" x2="0.5" y2="1" xlink:href="#linear-gradient"/>
    <linearGradient id="linear-gradient-5" x1="0.5" y1="0" x2="0.5" y2="1" xlink:href="#linear-gradient"/>
    <linearGradient id="linear-gradient-10" x1="0.5" y1="0" x2="0.5" y2="1" xlink:href="#linear-gradient"/>
    <linearGradient id="linear-gradient-13" x1="0.5" y1="0" x2="0.5" y2="1" xlink:href="#linear-gradient"/>
    <linearGradient id="linear-gradient-14" x1="0.5" y1="0" x2="0.5" y2="1" xlink:href="#linear-gradient"/>
    <linearGradient id="linear-gradient-20" x1="0.5" y1="0" x2="0.5" y2="1" xlink:href="#linear-gradient"/>
    <linearGradient id="linear-gradient-21" x1="0.5" y1="0" x2="0.5" y2="1" xlink:href="#linear-gradient"/>
  </defs>
  <g id="logo" transform="translate(0 0)">
    <g id="그룹_1" data-name="그룹 1" transform="translate(0 16.276)">
      <path id="패스_1" data-name="패스 1" d="M483.049,171.674v.188c-.333.049-.593.759-.215,1.73l5.424,12.2,5.376-12.1c.451-1.018.355-1.776,0-1.824v-.188H495.6v.188c-.331.049-.971.925-1.375,1.848l-6.465,14.542h-.592L480.751,173.8c-.4-.923-1.067-1.894-1.421-1.943v-.188Z" transform="translate(-479.331 -171.674)" fill="url(#linear-gradient)"/>
      <path id="패스_2" data-name="패스 2" d="M502.15,171.674v2.107h-.189a2.2,2.2,0,0,0-2.036-1.563h-5.164c-.71,0-.71.473-.71,1.563v5.9h4.358a2.371,2.371,0,0,0,2.036-1h.189v2.511h-.189a2.383,2.383,0,0,0-2.036-.971h-4.358v5.92c0,1.091,0,1.564.71,1.564h5.424a2.2,2.2,0,0,0,2.038-1.564h.188v2.109H491.445v-.189a2.341,2.341,0,0,0,.71-1.919V173.781a2.347,2.347,0,0,0-.71-1.919v-.188Z" transform="translate(-473.52 -171.674)" fill="url(#linear-gradient-2)"/>
      <path id="패스_3" data-name="패스 3" d="M505.854,171.674c3.955,0,5.92,2.2,5.92,4.429,0,1.919-1.468,3.837-4.4,4.31,4.713,1.634,2.936,7.413,6.419,7.437l.022.4c-6.867,0-4.05-7.7-9.189-7.721h-1.563v5.612a2.347,2.347,0,0,0,.709,1.919v.189h-3.315v-.189a2.341,2.341,0,0,0,.71-1.919V173.781a2.346,2.346,0,0,0-.71-1.919v-.188Zm-2.085.545c-.709,0-.709.473-.709,1.563v6.206h2.178c3.008,0,4.5-1.943,4.5-3.884s-1.492-3.884-4.5-3.884Z" transform="translate(-469.198 -171.674)" fill="url(#linear-gradient)"/>
      <path id="패스_4" data-name="패스 4" d="M513.917,171.674c3.243.024,7.271.545,7.271,4.263,0,2.32-1.682,3.385-3.647,3.884,2.677.308,5.257,1.278,5.257,4.121,0,3.884-5.21,4.31-8.076,4.31H510.6v-.189a2.341,2.341,0,0,0,.71-1.919V173.781a2.347,2.347,0,0,0-.71-1.919v-.188Zm-.237,8.005c2.32,0,5.541-.4,5.541-3.742,0-3.245-2.651-3.742-5.3-3.742-.712,0-.712.5-.712,1.586v5.9Zm-.475.545v5.92c0,1.091,0,1.564.712,1.564h.923c2.32,0,5.944-.426,5.944-3.766s-3.2-3.766-5.92-3.742h-.118c-.4.024-.806.024-1.184.024Z" transform="translate(-464.332 -171.674)" fill="url(#linear-gradient)"/>
      <path id="패스_5" data-name="패스 5" d="M523.918,171.674v.188a2.347,2.347,0,0,0-.71,1.919v12.363a2.341,2.341,0,0,0,.71,1.919v.189H520.6v-.189a2.347,2.347,0,0,0,.709-1.919V173.781a2.353,2.353,0,0,0-.709-1.919v-.188Z" transform="translate(-459.534 -171.674)" fill="url(#linear-gradient-5)"/>
      <path id="패스_6" data-name="패스 6" d="M526.084,171.674,536.86,185.1V173.781a2.347,2.347,0,0,0-.71-1.919v-.188h1.965v.188a2.347,2.347,0,0,0-.71,1.919v12.363a2.341,2.341,0,0,0,.71,1.919v.189H536.86L525.539,174.16v11.984a2.341,2.341,0,0,0,.71,1.919v.189h-1.966v-.189a2.336,2.336,0,0,0,.712-1.919V173.781a2.341,2.341,0,0,0-.712-1.919v-.188Z" transform="translate(-457.769 -171.674)" fill="url(#linear-gradient)"/>
      <path id="패스_7" data-name="패스 7" d="M540.163,171.674a8.292,8.292,0,1,1,0,16.578H535.07v-.189a2.341,2.341,0,0,0,.71-1.919V173.781a2.347,2.347,0,0,0-.71-1.919v-.188Zm-1.777.545c-.71,0-.71.473-.71,1.563v12.363c0,1.091,0,1.564.71,1.564h1.659c3.835,0,6.607-3.576,6.607-7.745s-2.771-7.745-6.607-7.745Z" transform="translate(-452.595 -171.674)" fill="url(#linear-gradient)"/>
      <path id="패스_8" data-name="패스 8" d="M556.817,171.674v2.107h-.189a2.2,2.2,0,0,0-2.036-1.563h-5.164c-.71,0-.71.473-.71,1.563v5.9h4.358a2.371,2.371,0,0,0,2.036-1h.189v2.511h-.189a2.383,2.383,0,0,0-2.036-.971h-4.358v5.92c0,1.091,0,1.564.71,1.564h5.424a2.205,2.205,0,0,0,2.038-1.564h.188v2.109H546.112v-.189a2.341,2.341,0,0,0,.71-1.919V173.781a2.347,2.347,0,0,0-.71-1.919v-.188Z" transform="translate(-447.298 -171.674)" fill="url(#linear-gradient)"/>
      <path id="패스_9" data-name="패스 9" d="M556.763,171.674,567.538,185.1V173.781a2.347,2.347,0,0,0-.71-1.919v-.188h1.966v.188a2.341,2.341,0,0,0-.712,1.919v12.363a2.336,2.336,0,0,0,.712,1.919v.189h-1.256l-11.32-14.092v11.984a2.342,2.342,0,0,0,.709,1.919v.189h-1.965v-.189a2.346,2.346,0,0,0,.71-1.919V173.781a2.351,2.351,0,0,0-.71-1.919v-.188Z" transform="translate(-443.053 -171.674)" fill="url(#linear-gradient)"/>
    </g>
    <g id="그룹_2" data-name="그룹 2" transform="translate(2.178 40.377)">
      <path id="패스_10" data-name="패스 10" d="M480.8,193.55c.087-.015.251-.215.37-.451l2.08-4.674h.185l2.006,4.519c.126.281.334.592.444.607v.059h-1.139v-.059c.111-.015.192-.259.044-.593v.007l-.275-.629a1.316,1.316,0,0,1-.614.163c-.533,0-.947-.37-1.57-.37a1.776,1.776,0,0,0-.585.1l-.333.749c-.141.318-.111.555,0,.57v.059H480.8Zm1.021-1.5a1.637,1.637,0,0,1,.534-.089c.614,0,1.006.363,1.517.363a1.173,1.173,0,0,0,.571-.148l-1.342-3.014Z" transform="translate(-480.803 -188.313)" fill="url(#linear-gradient-10)"/>
      <path id="패스_11" data-name="패스 11" d="M492.177,188.424c1.237,0,1.851.69,1.851,1.386a1.447,1.447,0,0,1-1.378,1.346c1.474.51.917,2.319,2.008,2.326l.007.126c-2.149,0-1.268-2.407-2.875-2.415H491.3v1.756a.736.736,0,0,0,.222.6v.059h-1.037v-.059a.731.731,0,0,0,.223-.6v-3.866a.731.731,0,0,0-.223-.6v-.061Zm-.653.172c-.222,0-.222.148-.222.488v1.94h.681a1.227,1.227,0,1,0,0-2.428Z" transform="translate(-476.158 -188.313)" fill="url(#linear-gradient-10)"/>
      <path id="패스_12" data-name="패스 12" d="M499.207,188.424h4.118v.66h-.061a.687.687,0,0,0-.635-.488h-.845c-.222,0-.222.148-.222.488v3.866a.752.752,0,0,0,.222.6v.059h-1.037v-.059a.742.742,0,0,0,.222-.564v-4.035c-.006-.246-.03-.355-.222-.355H499.9a.688.688,0,0,0-.638.488h-.059Z" transform="translate(-471.975 -188.313)" fill="url(#linear-gradient-10)"/>
      <path id="패스_13" data-name="패스 13" d="M510.721,188.349a2.61,2.61,0,0,1,1.546.527l-.391.54h-.067a1.114,1.114,0,0,0-1.089-.9c-1.357,0-2.036,1.265-2.036,2.532s.679,2.533,2.036,2.533a1.876,1.876,0,0,0,1.2-.37v-1.734c0-.326-.067-.562-.2-.6a1.411,1.411,0,0,0-.925.207l-.068-.118a1.37,1.37,0,0,1,.795-.244c.288,0,.547.074.784.074a.686.686,0,0,0,.407-.118l.037.118c-.007.015-.022.015-.03.022a.836.836,0,0,0-.229.616v2.206h-.105a.26.26,0,0,0-.25-.274.432.432,0,0,0-.192.052,2.41,2.41,0,0,1-1.222.333,2.7,2.7,0,0,1,0-5.407Z" transform="translate(-467.735 -188.349)" fill="url(#linear-gradient-13)"/>
      <path id="패스_14" data-name="패스 14" d="M517.4,193.55c.09-.015.253-.215.371-.451l2.082-4.674h.185l2.006,4.519c.126.281.333.592.444.607v.059h-1.141v-.059c.112-.015.192-.259.046-.593v.007l-.275-.629a1.315,1.315,0,0,1-.614.163c-.533,0-.947-.37-1.57-.37a1.783,1.783,0,0,0-.586.1l-.333.749c-.141.318-.111.555,0,.57v.059H517.4Zm1.024-1.5a1.635,1.635,0,0,1,.533-.089c.614,0,1.008.363,1.518.363a1.169,1.169,0,0,0,.57-.148l-1.341-3.014Z" transform="translate(-463.25 -188.313)" fill="url(#linear-gradient-14)"/>
      <path id="패스_15" data-name="패스 15" d="M528.119,188.424v.061a.731.731,0,0,0-.222.6v3.866c0,.34,0,.488.222.488h1.7a.685.685,0,0,0,.636-.488h.059v.658h-3.428v-.059a.731.731,0,0,0,.222-.6v-3.866a.731.731,0,0,0-.222-.6v-.061Z" transform="translate(-458.604 -188.313)" fill="url(#linear-gradient-14)"/>
      <path id="패스_16" data-name="패스 16" d="M536.784,188.424v.061a.731.731,0,0,0-.222.6v3.866c0,.34,0,.488.222.488h1.7a.685.685,0,0,0,.636-.488h.059v.658h-3.428v-.059a.731.731,0,0,0,.222-.6v-3.866a.731.731,0,0,0-.222-.6v-.061Z" transform="translate(-454.448 -188.313)" fill="url(#linear-gradient-14)"/>
      <path id="패스_17" data-name="패스 17" d="M547.76,188.424v.66H547.7a.688.688,0,0,0-.638-.488h-1.614c-.222,0-.222.148-.222.488v1.844h1.363a.741.741,0,0,0,.636-.311h.059v.786h-.059a.744.744,0,0,0-.636-.3h-1.363v1.853c0,.34,0,.488.222.488h1.7a.686.686,0,0,0,.636-.488h.059v.658h-3.428v-.059a.732.732,0,0,0,.222-.6v-3.866a.732.732,0,0,0-.222-.6v-.061Z" transform="translate(-450.292 -188.313)" fill="url(#linear-gradient-14)"/>
      <path id="패스_18" data-name="패스 18" d="M554.817,188.424c1.236,0,1.851.69,1.851,1.386a1.447,1.447,0,0,1-1.378,1.346c1.474.51.917,2.319,2.006,2.326l.007.126c-2.149,0-1.267-2.407-2.874-2.415h-.488v1.756a.731.731,0,0,0,.222.6v.059h-1.037v-.059a.732.732,0,0,0,.222-.6v-3.866a.732.732,0,0,0-.222-.6v-.061Zm-.652.172c-.222,0-.222.148-.222.488v1.94h.682a1.227,1.227,0,1,0,0-2.428Z" transform="translate(-446.111 -188.313)" fill="url(#linear-gradient-10)"/>
      <path id="패스_19" data-name="패스 19" d="M562.876,188.424v.061c-.095.015-.1.207.031.474l1.339,2.11,1.274-2.006c.229-.363.223-.577.081-.577v-.061h.666v.061c-.109.015-.355.274-.547.577l-1.437,2.265v1.623a.73.73,0,0,0,.223.6v.059h-1.039v-.059a.73.73,0,0,0,.223-.6v-1.623l-1.429-2.258a1.436,1.436,0,0,0-.555-.584v-.061Z" transform="translate(-441.996 -188.313)" fill="url(#linear-gradient-10)"/>
    </g>
    <g id="그룹_3" data-name="그룹 3" transform="translate(49.218)">
      <path id="패스_20" data-name="패스 20" d="M512.594,161.061h8.461v1.355h-.123a1.41,1.41,0,0,0-1.308-1H517.89c-.457,0-.457.3-.457,1v7.943a1.559,1.559,0,0,0,.457,1.233v.121h-2.131v-.121a1.533,1.533,0,0,0,.456-1.156v-8.294c-.015-.5-.061-.731-.456-.731h-1.734a1.414,1.414,0,0,0-1.309,1h-.121Z" transform="translate(-512.594 -161.061)" fill="url(#linear-gradient-20)"/>
      <path id="패스_21" data-name="패스 21" d="M519.237,161.184v-.123h2.132v.123a1.5,1.5,0,0,0-.457,1.233V166.2h5.874v-3.788a1.5,1.5,0,0,0-.457-1.233v-.123h2.131v.123a1.5,1.5,0,0,0-.457,1.233v7.943a1.5,1.5,0,0,0,.457,1.233v.121h-2.131v-.121a1.5,1.5,0,0,0,.457-1.233v-3.8h-5.874v3.8a1.5,1.5,0,0,0,.457,1.233v.121h-2.132v-.121a1.5,1.5,0,0,0,.457-1.233v-7.943A1.5,1.5,0,0,0,519.237,161.184Z" transform="translate(-509.408 -161.061)" fill="url(#linear-gradient-21)"/>
      <path id="패스_22" data-name="패스 22" d="M533.375,161.061v1.355h-.121a1.41,1.41,0,0,0-1.307-1h-3.319c-.456,0-.456.3-.456,1V166.2h2.8a1.524,1.524,0,0,0,1.308-.638h.121v1.611h-.121a1.531,1.531,0,0,0-1.308-.623h-2.8v3.8c0,.7,0,1,.456,1h3.485a1.414,1.414,0,0,0,1.309-1h.121v1.354H526.5v-.121a1.5,1.5,0,0,0,.457-1.233v-7.943a1.5,1.5,0,0,0-.457-1.233v-.123Z" transform="translate(-505.925 -161.061)" fill="url(#linear-gradient-21)"/>
    </g>
  </g>
</svg>
