<svg xmlns="http://www.w3.org/2000/svg" width="15.852" height="20.471" viewBox="0 0 15.852 20.471">
  <path id="pinterest" d="M169.013,765.241a8.554,8.554,0,0,0-8.254,3.64,6.378,6.378,0,0,0-.045,7.121,3.305,3.305,0,0,0,1.346,1.009.389.389,0,0,0,.575-.258c.1-.364.184-.732.277-1.1.062-.236-.081-.378-.266-.61-1.455-1.825-.723-5.822,2.5-7.313,2.812-1.3,7.244-.428,7.484,3.614.122,2.028-.517,4.888-2.163,6.082-1.784,1.294-3.87.034-3.423-1.739.54-2.149,1.243-3.6.978-4.714-.432-1.8-2.9-1.629-3.587.547a4.488,4.488,0,0,0,.118,2.983.448.448,0,0,1,.035.266c-1.518,6.383-1.663,6.787-1.7,7.964a15.719,15.719,0,0,0,.162,2.7c.012.091.021.193.134.218s.152-.066.2-.132a15.183,15.183,0,0,0,1.243-1.856c.773-1.368.856-2.022,1.608-4.969.013-.049.029-.1.047-.158a5.22,5.22,0,0,0,.335.411c1.566,1.6,4.961,1.422,7.056-1.175a9.608,9.608,0,0,0,1.765-6.754A6.989,6.989,0,0,0,169.013,765.241Z" transform="translate(-159.657 -765.18)" fill="#fff"/>
</svg>
