<svg id="right_vintage_frame" xmlns="http://www.w3.org/2000/svg" xmlns:xlink="http://www.w3.org/1999/xlink" width="80.805" height="22.408" viewBox="0 0 80.805 22.408">
  <defs>
    <linearGradient id="linear-gradient" y1="0.5" x2="1" y2="0.5" gradientUnits="objectBoundingBox">
      <stop offset="0" stop-color="#ffc300"/>
      <stop offset="0.006" stop-color="#ffc300"/>
      <stop offset="0.485" stop-color="#fffae9"/>
      <stop offset="1" stop-color="#ffc711"/>
    </linearGradient>
  </defs>
  <g id="그룹_69" data-name="그룹 69" transform="translate(0 2.754)">
    <path id="패스_40" data-name="패스 40" d="M369.871,393.946c5.733-2.49,9.257,4.9,5.279,8.935a7.26,7.26,0,0,1-8.61.972A7.441,7.441,0,0,1,363,395.871c1.131-6.568,7.578-9.757,13.752-9.526,11.336.176,16.389,6.706,24.382,13.184a24.191,24.191,0,0,0,12.486,5.259A20.813,20.813,0,0,0,426.9,402.36a17.407,17.407,0,0,0,5.155-4.521.187.187,0,1,1,.316.2c-5.594,8.266-17.063,9.7-25.816,6.084-6.642-2.718-11.169-8.583-16.96-12.526-5.4-3.745-13.269-5.468-19.484-2.938a10.477,10.477,0,0,0-4.979,4.279c-1.688,2.8-1.958,6.776.551,9.158,3.126,3.3,9.66,2.239,10.473-2.59.682-3.587-2.6-6.811-6.119-5.223a.187.187,0,0,1-.164-.336Z" transform="translate(-362.85 -386.333)" fill="url(#linear-gradient)"/>
    <path id="패스_41" data-name="패스 41" d="M371.935,394.385a1.822,1.822,0,1,1-2.112-.546A1.576,1.576,0,0,1,371.935,394.385Z" transform="translate(-362.85 -386.333)" fill="url(#linear-gradient)"/>
  </g>
  <g id="그룹_70" data-name="그룹 70" transform="translate(11.255)">
    <path id="패스_42" data-name="패스 42" d="M436.633,395.62c-5.733,2.49-9.256-4.9-5.278-8.935a7.26,7.26,0,0,1,8.61-.972,7.442,7.442,0,0,1,3.543,7.982c-1.132,6.569-7.579,9.757-13.753,9.526-11.336-.176-16.388-6.706-24.382-13.183a24.18,24.18,0,0,0-12.486-5.26,20.81,20.81,0,0,0-13.28,2.428,17.423,17.423,0,0,0-5.156,4.521.186.186,0,1,1-.315-.2c5.594-8.266,17.063-9.7,25.815-6.083,6.642,2.717,11.169,8.583,16.961,12.525,5.4,3.745,13.268,5.468,19.484,2.938a10.475,10.475,0,0,0,4.978-4.279c1.689-2.8,1.959-6.776-.55-9.158-3.127-3.3-9.661-2.239-10.473,2.59-.683,3.587,2.6,6.811,6.119,5.224a.186.186,0,0,1,.163.335Z" transform="translate(-374.105 -383.579)" fill="url(#linear-gradient)"/>
    <path id="패스_43" data-name="패스 43" d="M434.57,395.181a1.822,1.822,0,1,1,2.111.546A1.575,1.575,0,0,1,434.57,395.181Z" transform="translate(-374.105 -383.579)" fill="url(#linear-gradient)"/>
  </g>
</svg>
