<svg xmlns="http://www.w3.org/2000/svg" width="21" height="19.999" viewBox="0 0 21 19.999">
  <g id="search_btn" transform="translate(6099)" fill="none">
    <path d="M-6085.2,13.509A7.976,7.976,0,0,1-6091,16a8,8,0,0,1-8-8,8,8,0,0,1,8-8,8,8,0,0,1,8,8,7.962,7.962,0,0,1-1.554,4.739l6.555,6.553-.707.707Z" stroke="none"/>
    <path d="M -6091 14.99985885620117 C -6089.06201171875 14.99985885620117 -6087.25927734375 14.22579860687256 -6085.92431640625 12.82027912139893 L -6085.62158203125 12.50168037414551 L -6085.35986328125 12.14614868164062 C -6084.470703125 10.93886852264404 -6084.00048828125 9.505388259887695 -6084.00048828125 8.000688552856445 C -6084.00048828125 4.140498638153076 -6087.140625 0.9999986886978149 -6091 0.9999986886978149 C -6094.85986328125 0.9999986886978149 -6098.00048828125 4.140498638153076 -6098.00048828125 8.000688552856445 C -6098.00048828125 11.86004829406738 -6094.85986328125 14.99985885620117 -6091 14.99985885620117 M -6078.70703125 19.99943923950195 L -6085.19921875 13.5089282989502 C -6086.65625 15.04305839538574 -6088.71630859375 15.99985885620117 -6091 15.99985885620117 C -6095.4189453125 15.99985885620117 -6099.00048828125 12.41813850402832 -6099.00048828125 8.000688552856445 C -6099.00048828125 3.581718683242798 -6095.4189453125 -1.333923364654765e-06 -6091 -1.333923364654765e-06 C -6086.5810546875 -1.333923364654765e-06 -6083.00048828125 3.581718683242798 -6083.00048828125 8.000688552856445 C -6083.00048828125 9.774249076843262 -6083.57763671875 11.41280841827393 -6084.5546875 12.73922824859619 L -6078 19.29227828979492 L -6078.70703125 19.99943923950195 Z" stroke="none" fill="#fff"/>
  </g>
</svg>
