<svg xmlns="http://www.w3.org/2000/svg" width="21.334" height="17.559" viewBox="0 0 21.334 17.559">
  <path id="twitter" d="M125.366,768.758a8.856,8.856,0,0,1-2.157.615c.347-.059.856-.686,1.06-.941a3.932,3.932,0,0,0,.716-1.306c.019-.037.033-.083,0-.112a.126.126,0,0,0-.115.009,10.959,10.959,0,0,1-2.558.979.17.17,0,0,1-.176-.047,2.148,2.148,0,0,0-.224-.229,4.533,4.533,0,0,0-1.239-.758,4.308,4.308,0,0,0-1.9-.307,4.543,4.543,0,0,0-1.8.51,4.63,4.63,0,0,0-1.454,1.188,4.452,4.452,0,0,0-.869,1.74,4.7,4.7,0,0,0-.047,1.836c.014.1,0,.117-.088.1a13.661,13.661,0,0,1-8.789-4.474c-.1-.117-.159-.117-.242.009a4.458,4.458,0,0,0,.759,5.267c.172.163.349.326.54.475a4.491,4.491,0,0,1-1.7-.475c-.1-.065-.154-.028-.163.088a2.692,2.692,0,0,0,.028.5,4.507,4.507,0,0,0,2.778,3.593,2.644,2.644,0,0,0,.563.173,5.05,5.05,0,0,1-1.663.051c-.122-.024-.167.037-.122.154a4.679,4.679,0,0,0,3.5,2.926c.159.029.317.029.476.066-.01.014-.019.014-.028.028a5.543,5.543,0,0,1-2.388,1.265,8.541,8.541,0,0,1-3.625.464c-.2-.029-.236-.027-.289,0s-.008.079.055.13c.248.163.5.308.756.447a11.994,11.994,0,0,0,2.423.97,12.909,12.909,0,0,0,12.53-2.931c2.568-2.551,3.468-6.069,3.468-9.592,0-.138.163-.214.259-.287a8.491,8.491,0,0,0,1.706-1.774.539.539,0,0,0,.113-.34v-.018C125.455,768.7,125.454,768.718,125.366,768.758Z" transform="translate(-104.121 -766.652)" fill="#fff"/>
</svg>
